# xmcd
#
# Track frame offsets:
#	150
#	17343
#	27439
#	43077
#	53690
#	65485
#	77394
#	94971
#	106608
#	120409
#	130822
#	143599
#	158741
#	183247
#	193684
#
# Disc length: 2717 seconds
#
# Revision: 1
# Processed by: cddbd v1.5.2PL0 Copyright (c) Steve Scherf et al.
# Submitted via: audiograbber 1.83.01
#
DISCID=b40a9b0f
DTITLE=Karaoke - Chartbuster Hot Bluegrass V. 61
DYEAR=1998
DGENRE=Country
TTITLE0=Oak Ridge Boys - Elvira
TTITLE1=George Jones - The Race Is On
TTITLE2=Rosanne Cash - Seven Year Ache
TTITLE3=Waylon Jennings - The Wurlitzer Prize
TTITLE4=Ronnie McDowell - It's Only Make Believe
TTITLE5=Connie Smith - Cincinnati, Ohio
TTITLE6=Kenny Rogers - Lady
TTITLE7=Dave Dudley - Six Days On The Road
TTITLE8=Rex Smith - You Take My Breath Away
TTITLE9=Charlie Pride - Is Anybody Goin' To San Antone
TTITLE10=Ray Price - Heartaches ByThe Number
TTITLE11=Emmy Lou Harris - Blue Kentucky Girl
TTITLE12=Red Sovine - Teddy Bear
TTITLE13=Merle Haggard - Mama Tried
TTITLE14=Tammy Wynette - You're Good Girl's Gonna Go Bad
EXTD=
EXTT0=
EXTT1=
EXTT2=
EXTT3=
EXTT4=
EXTT5=
EXTT6=
EXTT7=
EXTT8=
EXTT9=
EXTT10=
EXTT11=
EXTT12=
EXTT13=
EXTT14=
PLAYORDER=
